<?xml version="1.0" encoding="utf-8"?>
<!-- Generator: Adobe Illustrator 24.3.0, SVG Export Plug-In . SVG Version: 6.00 Build 0)  -->
<svg version="1.1" id="Ebene_1" xmlns="http://www.w3.org/2000/svg" xmlns:xlink="http://www.w3.org/1999/xlink" x="0px" y="0px"
	 viewBox="0 0 224.1 73" style="enable-background:new 0 0 224.1 73;" xml:space="preserve">
<style type="text/css">
	svg{ width:280px;height:auto}
	.st0{fill:#00B0E1;}

</style>
<g>
	<path class="st0" d="M29.7,20.7h-5.2c-0.9,0-1.3,0.4-1.3,1.3v24.5c0,2-0.4,4-5.8,4c-3.7,0-5.8-2-5.8-5.6V22c0-0.9-0.4-1.3-1.3-1.3
		h-5C4.4,20.7,4,21.1,4,22v23c0,8.5,7.3,10.2,13.3,10.2c5.2,0,9.4-1.1,11.2-2.1c1.7-1,2.4-2.4,2.4-4.7V22
		C30.9,21.1,30.5,20.7,29.7,20.7"/>
	<path class="st0" d="M40.4,4.7h-1.8c-0.6,0-1,0.3-1,1v63c0,0.6,0.3,1,1,1h1.8c0.6,0,1-0.3,1-1v-63C41.3,5.1,41,4.7,40.4,4.7"/>
	<path class="st0" d="M61.4,34.9c-3.8-1.6-7.2-3.1-7.2-6.4c0-2.8,1.7-4.4,4.6-4.4c2.7,0,4,2,4.9,4.2c0.7,1.6,1.7,2.3,3.4,2.3
		c1.9,0,3.1-1.2,3.1-3.1c0-3-3.6-7.3-11.3-7.3c-7.3,0-11.9,3.7-11.9,9.7c0,5.6,5,7.8,9.4,9.8c3.8,1.7,7.3,3.3,7.3,6.7
		c0,3.1-2.3,4.7-4.7,4.7c-3.3,0-4.7-2.2-5.7-4.6c-0.7-1.6-1.8-2.4-3.5-2.4c-2.1,0-3.5,1.3-3.5,3.3c0,2.9,3.7,8.3,12.6,8.3
		c7.4,0,12.2-4.1,12.2-10.4C71.2,39.1,66,36.9,61.4,34.9"/>
	<path class="st0" d="M99.8,42.7c-0.8,0-1.5,0.4-2,1.3c-1.4,2.6-3.3,5.3-7.1,5.3c-6.8,0-9.2-7.1-9.2-13.2c0-7.9,3.6-11.4,7.2-11.4
		s5.1,3.1,5.6,5c0.6,1.8,1.7,2.7,3.3,2.7c2.3,0,3.6-1.3,3.6-3.5c0-3.1-4.1-8.6-12.1-8.6c-9.1,0-14.8,6.8-14.8,17.7
		c0,13.1,7.5,17.7,14.5,17.7c8.3,0,12.6-7.3,12.6-11.2C101.5,43.4,100.7,42.7,99.8,42.7"/>
	<path class="st0" d="M119.2,20.2c-4.3,0-8,1-9.9,1.9c-2,0.9-2.8,2.1-2.8,4.2v27.2c0,0.9,0.4,1.3,1.3,1.3h5.1c0.9,0,1.3-0.4,1.3-1.3
		V27.7c0-1.9,1.4-3.1,3.8-3.1c1.8,0,2.5,0.9,3.2,1.9s1.5,2,3.3,2c2,0,3.3-1.3,3.3-3.4C127.9,23.6,127,20.2,119.2,20.2"/>
	<path class="st0" d="M142.4,24.6c5,0,6,4.6,6.2,7.5L135,34.4C135.3,29.6,137.4,24.6,142.4,24.6 M154.5,42.8c-0.8,0-1.3,0.4-1.8,1.2
		c-1.2,2-3.8,5.4-8,5.4c-5.4,0-8.9-4.1-9.4-11l18.6-3.1c1.3-0.2,2.1-0.6,2.1-2.2c0-6.4-4.4-12.9-12.8-12.9c-6.9,0-15,4.6-15,17.5
		c0,11.2,5.6,17.9,15,17.9c8.5,0,13-7.2,13-11.1C156.2,43.5,155.5,42.8,154.5,42.8"/>
	<path class="st0" d="M174.4,24.6c5,0,6,4.6,6.2,7.5L167,34.4C167.3,29.6,169.4,24.6,174.4,24.6 M186.5,42.8c-0.8,0-1.3,0.4-1.8,1.2
		c-1.2,2-3.8,5.4-8,5.4c-5.4,0-8.9-4.1-9.4-11l18.6-3.1c1.3-0.2,2.1-0.6,2.1-2.2c0-6.4-4.4-12.9-12.8-12.9c-6.9,0-15,4.6-15,17.5
		c0,11.2,5.6,17.9,15,17.9c8.5,0,13-7.2,13-11.1C188.2,43.5,187.5,42.8,186.5,42.8"/>
	<path class="st0" d="M206.4,20.2c-5.1,0-9,1-10.9,1.9c-2.1,1-2.7,2-2.7,4.2v27.2c0,0.9,0.4,1.3,1.3,1.3h5.1c0.9,0,1.3-0.4,1.3-1.3
		V28.6c0-2,0.4-4.1,5.6-4.1c5.7,0,6.5,3.8,6.5,6.1v22.9c0,0.9,0.4,1.3,1.3,1.3h5.2c0.9,0,1.3-0.4,1.3-1.3V30.3
		C220.4,21.5,211.7,20.2,206.4,20.2"/>
</g>
</svg>
